<svg width="143" height="71" viewBox="0 0 143 71" fill="none" xmlns="http://www.w3.org/2000/svg">
<path d="M93 11.5V11H89.5L93 11.5Z" fill="#292727"/>
<mask id="path-2-inside-1_216_297" fill="white">
<path fill-rule="evenodd" clip-rule="evenodd" d="M131 47.5107C119.549 55.5385 96.9751 61 71 61C45.0249 61 22.4514 55.5385 11 47.5107V23.4893C22.4514 15.4615 45.0249 10 71 10C96.9751 10 119.549 15.4615 131 23.4893V47.5107Z"/>
</mask>
<path fill-rule="evenodd" clip-rule="evenodd" d="M131 47.5107C119.549 55.5385 96.9751 61 71 61C45.0249 61 22.4514 55.5385 11 47.5107V23.4893C22.4514 15.4615 45.0249 10 71 10C96.9751 10 119.549 15.4615 131 23.4893V47.5107Z" fill="url(#paint0_linear_216_297)"/>
<path d="M131 47.5107L131.574 48.3295L132 48.0309V47.5107H131ZM11 47.5107H10V48.0309L10.426 48.3295L11 47.5107ZM11 23.4893L10.426 22.6705L10 22.9691V23.4893H11ZM131 23.4893H132V22.9691L131.574 22.6705L131 23.4893ZM71 62C97.0544 62 119.874 56.5313 131.574 48.3295L130.426 46.6918C119.223 54.5457 96.8958 60 71 60V62ZM10.426 48.3295C22.1256 56.5313 44.9456 62 71 62V60C45.1042 60 22.7773 54.5457 11.574 46.6918L10.426 48.3295ZM10 23.4893V47.5107H12V23.4893H10ZM71 9C44.9456 9 22.1256 14.4687 10.426 22.6705L11.574 24.3082C22.7773 16.4543 45.1042 11 71 11V9ZM131.574 22.6705C119.874 14.4687 97.0544 9 71 9V11C96.8958 11 119.223 16.4543 130.426 24.3082L131.574 22.6705ZM132 47.5107V23.4893H130V47.5107H132Z" fill="#292727" mask="url(#path-2-inside-1_216_297)"/>
<path d="M139 29C133.5 17 108.555 6 71 6C33.4446 6 10 14 3 29C3 14.6406 33.4446 3 71 3C108.555 3 139 14.6406 139 29Z" fill="#292727"/>
<path d="M139 29C133.5 17 108.555 6 71 6C33.4446 6 10 14 3 29C3 14.6406 33.4446 3 71 3C108.555 3 139 14.6406 139 29Z" fill="#292727"/>
<path d="M139 29C133.5 17 108.555 6 71 6C34.5 7.05909 10 14 3 29C3 14.6406 33.4446 3 71 3C108.555 3 139 14.6406 139 29Z" fill="#292727"/>
<path d="M3 43C8.5 55 33.4446 66 71 66C108.555 66 132 58 139 43C139 57.3594 108.555 69 71 69C33.4446 69 3 57.3594 3 43Z" fill="#292727"/>
<path d="M3 43C8.5 55 33.4446 66 71 66C108.5 64.6925 132 58 139 43C139 57.3594 108.555 69 71 69C33.4446 69 3 57.3594 3 43Z" fill="#292727"/>
<rect x="48.5" y="5.5" width="44" height="5" stroke="#292727"/>
<rect x="129.5" y="54.5" width="36" height="1" transform="rotate(-90 129.5 54.5)" stroke="#292727"/>
<rect x="11.5" y="54.5" width="37" height="1" transform="rotate(-90 11.5 54.5)" stroke="#292727"/>
<rect x="92.5" y="6.5" width="9" height="3" stroke="#292727"/>
<rect x="39.5" y="6.5" width="9" height="3" stroke="#292727"/>
<rect x="48.5" y="60.5" width="44" height="6" stroke="#292727"/>
<rect x="92.5" y="62.5" width="9" height="3" stroke="#292727"/>
<rect x="39.5" y="62.5" width="9" height="3" stroke="#292727"/>
<path d="M29.9076 32H25.4756V31.616L26.8676 31.472V21.84L25.4756 21.696V21.312H29.9076V21.696L28.5156 21.84V31.472L29.9076 31.616V32ZM34.1551 26.368H34.9551C36.8644 26.368 37.8191 25.568 37.8191 23.968C37.8191 23.1787 37.6324 22.608 37.2591 22.256C36.8857 21.8933 36.2884 21.712 35.4671 21.712C35.1471 21.712 34.7097 21.7333 34.1551 21.776V26.368ZM34.1231 21.28L35.9471 21.232C38.3684 21.232 39.5791 22.144 39.5791 23.968C39.5791 24.7573 39.3071 25.408 38.7631 25.92C38.2297 26.4213 37.5364 26.672 36.6831 26.672C36.6084 26.672 36.4751 26.6613 36.2831 26.64V26.672C37.4244 26.832 38.2084 27.2053 38.6351 27.792C39.0724 28.368 39.2911 29.2533 39.2911 30.448C39.2911 31.1947 39.4297 31.6267 39.7071 31.744C39.8351 31.8293 40.0111 31.872 40.2351 31.872C40.4697 31.872 40.7684 31.8027 41.1311 31.664V32.064C40.5657 32.2667 40.0484 32.368 39.5791 32.368C38.5337 32.368 37.8884 31.92 37.6431 31.024C37.5791 30.7893 37.5417 30.4587 37.5311 30.032C37.5311 29.6053 37.5151 29.2267 37.4831 28.896C37.4511 28.5653 37.3764 28.2347 37.2591 27.904C36.9924 27.1893 36.2564 26.832 35.0511 26.832H34.1551V31.536L35.3871 31.648V32H31.3071V31.664L32.5071 31.536V21.808L31.1151 21.648V21.232C31.7977 21.264 32.5284 21.28 33.3071 21.28H34.1231ZM52.2543 32H47.9343V31.664L49.1823 31.472L47.7743 27.792H44.1743L42.8303 31.2L44.2543 31.616V32H40.9103V31.616L42.1263 31.2L46.0623 21.312H46.8463L51.0223 31.472L52.2543 31.616V32ZM47.5343 27.2L45.9663 23.312L44.3983 27.2H47.5343ZM56.1932 33.44C56.5345 33.3013 56.9825 33.232 57.5372 33.232C58.1025 33.232 58.9292 33.44 60.0172 33.856C61.1159 34.2827 61.8465 34.496 62.2092 34.496C62.7319 34.496 63.1532 34.1867 63.4732 33.568L63.8412 33.728C63.3719 35.0187 62.5132 35.664 61.2652 35.664C60.5612 35.664 59.3719 35.3707 57.6972 34.784C56.0332 34.208 54.8279 33.92 54.0812 33.92L54.1292 33.68C55.3025 33.3707 56.4385 32.8853 57.5372 32.224C55.9692 32.16 54.7265 31.6107 53.8092 30.576C52.8919 29.5307 52.4332 28.2133 52.4332 26.624C52.4332 25.024 52.9185 23.7013 53.8892 22.656C54.8599 21.6 56.1665 21.072 57.8092 21.072C59.4519 21.072 60.7532 21.6 61.7132 22.656C62.6839 23.712 63.1692 25.0187 63.1692 26.576C63.1692 28.1333 62.7425 29.4293 61.8892 30.464C61.0465 31.488 59.8999 32.0693 58.4492 32.208C57.4465 32.7947 56.6892 33.1947 56.1772 33.408L56.1932 33.44ZM57.8252 31.744C60.0865 31.744 61.2172 30.048 61.2172 26.656C61.2172 25.0133 60.9559 23.7547 60.4332 22.88C59.9212 22.0053 59.0465 21.568 57.8092 21.568C56.5719 21.568 55.6919 22.0053 55.1692 22.88C54.6465 23.7547 54.3852 25.0133 54.3852 26.656C54.3852 30.048 55.5319 31.744 57.8252 31.744ZM69.7046 27.184V28.24H65.0646V27.184H69.7046ZM75.5962 21.312C76.8869 21.312 77.8202 21.52 78.3962 21.936C78.9829 22.352 79.2762 22.944 79.2762 23.712C79.2762 24.48 79.0682 25.0933 78.6522 25.552C78.2469 26 77.6495 26.2667 76.8602 26.352C77.8949 26.5333 78.6469 26.8427 79.1162 27.28C79.5855 27.7067 79.8202 28.3147 79.8202 29.104C79.8202 30.0853 79.4149 30.816 78.6042 31.296C77.7935 31.7653 76.7429 32 75.4522 32H71.2602V31.616L72.4602 31.472V21.84L71.0682 21.696V21.312H75.5962ZM76.2682 26.816C75.8629 26.7307 75.4682 26.688 75.0842 26.688C74.7002 26.688 74.3855 26.6933 74.1402 26.704V31.552C74.4069 31.6267 74.6469 31.664 74.8602 31.664C75.0842 31.664 75.3455 31.648 75.6442 31.616C75.9535 31.584 76.3055 31.4987 76.7002 31.36C77.1055 31.2107 77.4415 30.928 77.7082 30.512C77.9749 30.096 78.1082 29.584 78.1082 28.976C78.1082 27.792 77.4949 27.072 76.2682 26.816ZM74.1402 21.744V26.224H74.8122C76.6149 26.224 77.5162 25.4027 77.5162 23.76C77.5162 23.0453 77.3295 22.5333 76.9562 22.224C76.5935 21.904 76.0015 21.744 75.1802 21.744H74.1402ZM91.5981 32H87.2781V31.664L88.5261 31.472L87.1181 27.792H83.5181L82.1741 31.2L83.5981 31.616V32H80.2541V31.616L81.4701 31.2L85.4061 21.312H86.1901L90.3661 31.472L91.5981 31.616V32ZM86.8781 27.2L85.3101 23.312L83.7421 27.2H86.8781ZM94.8582 26.368H95.6582C97.5675 26.368 98.5222 25.568 98.5222 23.968C98.5222 23.1787 98.3355 22.608 97.9622 22.256C97.5889 21.8933 96.9915 21.712 96.1702 21.712C95.8502 21.712 95.4129 21.7333 94.8582 21.776V26.368ZM94.8262 21.28L96.6502 21.232C99.0715 21.232 100.282 22.144 100.282 23.968C100.282 24.7573 100.01 25.408 99.4662 25.92C98.9329 26.4213 98.2395 26.672 97.3862 26.672C97.3115 26.672 97.1782 26.6613 96.9862 26.64V26.672C98.1275 26.832 98.9115 27.2053 99.3382 27.792C99.7755 28.368 99.9942 29.2533 99.9942 30.448C99.9942 31.1947 100.133 31.6267 100.41 31.744C100.538 31.8293 100.714 31.872 100.938 31.872C101.173 31.872 101.472 31.8027 101.834 31.664V32.064C101.269 32.2667 100.752 32.368 100.282 32.368C99.2369 32.368 98.5915 31.92 98.3462 31.024C98.2822 30.7893 98.2449 30.4587 98.2342 30.032C98.2342 29.6053 98.2182 29.2267 98.1862 28.896C98.1542 28.5653 98.0795 28.2347 97.9622 27.904C97.6955 27.1893 96.9595 26.832 95.7542 26.832H94.8582V31.536L96.0902 31.648V32H92.0102V31.664L93.2102 31.536V21.808L91.8182 21.648V21.232C92.5009 21.264 93.2315 21.28 94.0102 21.28H94.8262ZM109.805 22.192C109.336 22.0107 108.995 21.9093 108.781 21.888C108.568 21.8667 108.307 21.8507 107.997 21.84C107.699 21.8187 107.341 21.808 106.925 21.808C106.52 21.808 106.035 21.8347 105.469 21.888V31.44L107.229 31.488C108.328 31.4453 109.139 31.3067 109.661 31.072C111.08 30.4213 111.795 28.9493 111.805 26.656C111.805 25.76 111.704 24.992 111.501 24.352C111.299 23.712 111.08 23.2373 110.845 22.928C110.621 22.6187 110.275 22.3733 109.805 22.192ZM104.365 21.328L107.469 21.248C108.419 21.248 109.251 21.328 109.965 21.488C110.68 21.648 111.336 21.92 111.933 22.304C113.149 23.0827 113.757 24.528 113.757 26.64C113.757 30.2133 111.581 32 107.229 32H102.397V31.584L103.789 31.456V21.872L102.397 21.696V21.28C103.048 21.312 103.704 21.328 104.365 21.328ZM119.517 32H115.085V31.616L116.477 31.472V21.84L115.085 21.696V21.312H119.517V21.696L118.125 21.84V31.472L119.517 31.616V32Z" fill="black"/>
<path d="M40.184 48H35.864V47.664L37.112 47.472L35.704 43.792H32.104L30.76 47.2L32.184 47.616V48H28.84V47.616L30.056 47.2L33.992 37.312H34.776L38.952 47.472L40.184 47.616V48ZM35.464 43.2L33.896 39.312L32.328 43.2H35.464ZM43.9401 48H40.2601V47.616L41.3161 47.536V36.512L39.8921 36.448V36.08L42.8841 35.744V47.536L43.9401 47.616V48ZM48.311 48.192C46.6043 48.192 45.751 47.3707 45.751 45.728C45.751 44.5227 45.7883 42.848 45.863 40.704L44.583 40.64V40.272L47.431 40.096C47.3563 42.912 47.319 44.8267 47.319 45.84C47.319 46.448 47.431 46.9013 47.655 47.2C47.879 47.4987 48.2523 47.648 48.775 47.648C49.3083 47.648 49.8097 47.3547 50.279 46.768C50.7483 46.1707 50.983 45.648 50.983 45.2V40.704L49.655 40.64V40.272L52.551 40.096V47.504L53.911 47.568L53.927 47.936L51.047 48.128L51.159 46.4H50.967C50.4123 47.5947 49.527 48.192 48.311 48.192ZM65.3894 40.08C67.096 40.08 67.9494 40.9013 67.9494 42.544C67.9494 43.728 67.912 45.392 67.8374 47.536L68.9734 47.616V48H65.4054V47.616L66.2694 47.552C66.344 44.736 66.3814 43.0293 66.3814 42.432C66.3814 41.824 66.2694 41.3707 66.0454 41.072C65.8214 40.7733 65.4587 40.624 64.9574 40.624C64.456 40.624 63.992 40.8373 63.5654 41.264C63.1387 41.68 62.8507 42.128 62.7014 42.608C62.7014 43.76 62.664 45.4027 62.5894 47.536L63.7254 47.616V48H60.1574V47.616L61.0214 47.552C61.096 44.736 61.1334 43.0293 61.1334 42.432C61.1334 41.824 61.0214 41.3707 60.7974 41.072C60.5734 40.7733 60.184 40.624 59.6294 40.624C59.0854 40.624 58.5734 40.9173 58.0934 41.504C57.6134 42.08 57.3734 42.592 57.3734 43.04V47.536L58.5734 47.616V48H54.7654V47.616L55.8054 47.552V40.768L54.4454 40.704V40.336L57.3094 40.144L57.2294 41.792H57.3894C57.6774 41.2267 58.0614 40.8 58.5414 40.512C59.032 40.224 59.5654 40.08 60.1414 40.08C61.5814 40.08 62.4134 40.656 62.6374 41.808V41.792C62.9254 41.2267 63.3094 40.8 63.7894 40.512C64.28 40.224 64.8134 40.08 65.3894 40.08ZM72.6881 37.584C72.6881 37.84 72.5975 38.064 72.4161 38.256C72.2348 38.4373 72.0055 38.528 71.7281 38.528C71.4615 38.528 71.2375 38.4373 71.0561 38.256C70.8748 38.0747 70.7841 37.8507 70.7841 37.584C70.7841 37.3067 70.8748 37.0773 71.0561 36.896C71.2375 36.704 71.4615 36.608 71.7281 36.608C71.9948 36.608 72.2188 36.704 72.4001 36.896C72.5921 37.088 72.6881 37.3173 72.6881 37.584ZM69.9681 48V47.616L71.0241 47.536V40.736L69.6161 40.688V40.32L72.5921 40.112V47.536L73.6481 47.616V48H69.9681ZM77.2953 41.888C77.7753 40.6507 78.7406 40.032 80.1913 40.032C80.9166 40.032 81.5033 40.2507 81.9513 40.688C82.3993 41.1147 82.6233 41.728 82.6233 42.528C82.6233 43.904 82.5806 45.5733 82.4953 47.536L83.5993 47.616V48H80.0633V47.616L80.9273 47.552C81.0126 45.1413 81.0553 43.76 81.0553 43.408C81.0553 43.056 81.0499 42.7893 81.0393 42.608C81.0286 42.416 80.9966 42.1867 80.9433 41.92C80.9006 41.6427 80.8313 41.424 80.7353 41.264C80.5006 40.8693 80.1326 40.672 79.6313 40.672C78.9486 40.672 78.3886 40.9547 77.9513 41.52C77.5139 42.0853 77.2953 42.6987 77.2953 43.36V47.536L78.4953 47.616V48H74.6713V47.616L75.7273 47.536V40.768L74.3673 40.704V40.336L77.2313 40.144L77.1513 41.872L77.2953 41.888ZM87.3288 37.584C87.3288 37.84 87.2381 38.064 87.0568 38.256C86.8754 38.4373 86.6461 38.528 86.3688 38.528C86.1021 38.528 85.8781 38.4373 85.6968 38.256C85.5154 38.0747 85.4248 37.8507 85.4248 37.584C85.4248 37.3067 85.5154 37.0773 85.6968 36.896C85.8781 36.704 86.1021 36.608 86.3688 36.608C86.6354 36.608 86.8594 36.704 87.0408 36.896C87.2328 37.088 87.3288 37.3173 87.3288 37.584ZM84.6088 48V47.616L85.6648 47.536V40.736L84.2568 40.688V40.32L87.2328 40.112V47.536L88.2888 47.616V48H84.6088ZM92.6079 48.192C90.9012 48.192 90.0479 47.3707 90.0479 45.728C90.0479 44.5227 90.0852 42.848 90.1599 40.704L88.8799 40.64V40.272L91.7279 40.096C91.6532 42.912 91.6159 44.8267 91.6159 45.84C91.6159 46.448 91.7279 46.9013 91.9519 47.2C92.1759 47.4987 92.5492 47.648 93.0719 47.648C93.6052 47.648 94.1065 47.3547 94.5759 46.768C95.0452 46.1707 95.2799 45.648 95.2799 45.2V40.704L93.9519 40.64V40.272L96.8479 40.096V47.504L98.2079 47.568L98.2239 47.936L95.3439 48.128L95.4559 46.4H95.2639C94.7092 47.5947 93.8239 48.192 92.6079 48.192ZM109.686 40.08C111.393 40.08 112.246 40.9013 112.246 42.544C112.246 43.728 112.209 45.392 112.134 47.536L113.27 47.616V48H109.702V47.616L110.566 47.552C110.641 44.736 110.678 43.0293 110.678 42.432C110.678 41.824 110.566 41.3707 110.342 41.072C110.118 40.7733 109.756 40.624 109.254 40.624C108.753 40.624 108.289 40.8373 107.862 41.264C107.436 41.68 107.148 42.128 106.998 42.608C106.998 43.76 106.961 45.4027 106.886 47.536L108.022 47.616V48H104.454V47.616L105.318 47.552C105.393 44.736 105.43 43.0293 105.43 42.432C105.43 41.824 105.318 41.3707 105.094 41.072C104.87 40.7733 104.481 40.624 103.926 40.624C103.382 40.624 102.87 40.9173 102.39 41.504C101.91 42.08 101.67 42.592 101.67 43.04V47.536L102.87 47.616V48H99.0623V47.616L100.102 47.552V40.768L98.7423 40.704V40.336L101.606 40.144L101.526 41.792H101.686C101.974 41.2267 102.358 40.8 102.838 40.512C103.329 40.224 103.862 40.08 104.438 40.08C105.878 40.08 106.71 40.656 106.934 41.808V41.792C107.222 41.2267 107.606 40.8 108.086 40.512C108.577 40.224 109.11 40.08 109.686 40.08Z" fill="white"/>
<path d="M48 12V11H53L48 12Z" fill="#292727"/>
<rect x="90" y="59" width="3" height="1" fill="#292727"/>
<rect x="48" y="59" width="4" height="1" fill="#292727"/>
<defs>
<linearGradient id="paint0_linear_216_297" x1="139" y1="35.5" x2="3" y2="35.5" gradientUnits="userSpaceOnUse">
<stop stop-color="#C69367"/>
<stop offset="1" stop-color="#604732"/>
</linearGradient>
</defs>
</svg>
